<?xml version="1.0" encoding="utf-8"?>
<!-- Generator: Adobe Illustrator 27.3.1, SVG Export Plug-In . SVG Version: 6.00 Build 0)  -->
<svg version="1.1" id="Layer_1" xmlns="http://www.w3.org/2000/svg" xmlns:xlink="http://www.w3.org/1999/xlink" x="0px" y="0px"
	 viewBox="0 0 31.6 29.8" style="enable-background:new 0 0 31.6 29.8;" xml:space="preserve">
<style type="text/css">
	.st0{enable-background:new    ;}
	.st1{fill:#AA1E2E;}
</style>
<g class="st0">
	<path class="st1" d="M10,20.2c0.7,0.9,1.1,1.9,1.1,3.1c0,1.4-0.5,2.6-1.4,3.6s-2.1,1.4-3.5,1.4c-1.4,0-2.6-0.5-3.6-1.4
		s-1.4-2.2-1.4-3.6c0-1.4,0.4-3.3,1.1-5.5L6.9,1.5h4.2L7.2,18.4C8.3,18.7,9.3,19.3,10,20.2z M28.3,20.2c0.7,0.9,1.1,1.9,1.1,3.1
		c0,1.4-0.5,2.6-1.4,3.6s-2.1,1.4-3.5,1.4c-1.4,0-2.6-0.5-3.6-1.4c-1-1-1.4-2.2-1.4-3.6c0-1.4,0.4-3.3,1.1-5.5l4.7-16.3h4.2
		l-3.8,16.9C26.7,18.7,27.6,19.3,28.3,20.2z"/>
</g>
</svg>
